<?xml version="1.0" encoding="UTF-8" standalone="no"?>
<!DOCTYPE svg PUBLIC "-//W3C//DTD SVG 1.1//EN" "http://www.w3.org/Graphics/SVG/1.1/DTD/svg11.dtd">
<svg xmlns="http://www.w3.org/2000/svg" version="1.1" viewBox="0 0 512 512">
<path fill="#DC8665" d="
  M 260.41 129.87
  C 256.64 133.95 252.36 138.67 247.83 142.37
  A 0.81 0.81 37.6 0 1 246.98 142.48
  L 236.71 137.95
  A 1.02 0.99 41.8 0 0 235.82 137.99
  Q 227.80 142.36 219.05 144.92
  A 1.05 1.03 -86.8 0 0 218.38 145.53
  L 214.14 155.97
  A 0.77 0.76 -78.2 0 1 213.44 156.44
  L 195.56 156.45
  A 0.75 0.72 -10.3 0 1 194.87 155.99
  L 190.96 145.89
  A 2.04 1.86 85.5 0 0 189.67 144.68
  Q 180.82 142.28 173.39 137.93
  A 1.02 1.01 47.8 0 0 172.47 137.88
  L 162.52 142.40
  A 1.36 1.35 54.9 0 1 161.00 142.13
  L 148.87 130.12
  A 1.80 1.72 -56.4 0 1 148.52 128.16
  L 152.82 118.22
  A 1.12 0.97 45.1 0 0 152.76 117.31
  Q 148.87 110.30 145.93 100.92
  A 1.75 1.62 3.1 0 0 144.92 99.88
  L 134.84 95.98
  A 0.95 0.93 -79.6 0 1 134.25 95.10
  L 134.25 77.76
  A 1.34 1.33 79.5 0 1 135.10 76.51
  L 145.29 72.57
  A 1.44 1.37 -4.5 0 0 146.16 71.60
  Q 148.34 62.90 152.51 55.91
  A 2.47 2.40 -42.2 0 0 152.65 53.69
  L 148.39 44.07
  A 1.19 1.13 56.3 0 1 148.62 42.77
  L 161.14 30.35
  A 0.80 0.77 32.3 0 1 161.97 30.18
  C 166.41 31.88 172.15 35.79 174.96 33.98
  C 179.45 31.08 184.89 29.15 190.04 27.82
  A 0.85 0.81 2.4 0 0 190.61 27.32
  L 194.85 16.48
  A 0.76 0.75 -79.1 0 1 195.55 16.00
  L 213.45 16.06
  A 0.73 0.72 -10.5 0 1 214.13 16.52
  L 218.10 26.61
  A 2.24 2.08 86.1 0 0 219.48 27.91
  Q 228.85 30.66 235.51 34.60
  A 1.18 1.09 47.2 0 0 236.55 34.68
  L 246.98 30.05
  A 0.75 0.71 -33.9 0 1 247.81 30.19
  L 260.43 42.80
  A 1.29 1.22 -56.1 0 1 260.66 44.19
  L 256.19 54.28
  A 1.07 0.99 44.1 0 0 256.24 55.19
  Q 260.54 63.09 263.17 71.71
  A 1.09 0.99 -89.1 0 0 263.77 72.39
  L 274.09 76.52
  A 0.77 0.71 11.4 0 1 274.58 77.20
  L 274.73 94.97
  A 1.22 1.21 -11.3 0 1 273.96 96.11
  L 263.67 100.12
  A 1.04 0.99 -3.9 0 0 263.05 100.80
  Q 260.84 109.33 256.37 116.97
  A 2.35 2.00 51.4 0 0 256.31 118.94
  L 260.59 129.03
  A 0.84 0.73 -36.9 0 1 260.41 129.87
  Z
  M 237.65 86.31
  A 33.12 33.12 0.0 0 0 204.53 53.19
  A 33.12 33.12 0.0 0 0 171.41 86.31
  A 33.12 33.12 0.0 0 0 204.53 119.43
  A 33.12 33.12 0.0 0 0 237.65 86.31
  Z"
/>
<path fill="#436fe6" d="
  M 380.51 134.65
  L 393.30 147.30
  A 1.15 1.09 -56.1 0 1 393.51 148.55
  L 388.93 158.79
  A 1.09 0.92 45.3 0 0 389.00 159.69
  Q 393.39 167.55 395.92 176.21
  A 1.06 1.02 -88.7 0 0 396.53 176.88
  L 406.70 180.88
  A 1.25 1.23 10.8 0 1 407.50 182.03
  L 407.50 199.77
  A 0.77 0.74 80.1 0 1 407.02 200.48
  L 396.56 204.48
  A 1.06 1.02 -3.3 0 0 395.93 205.16
  Q 393.23 214.24 388.99 222.06
  A 1.01 1.00 47.2 0 0 388.96 222.96
  L 393.49 233.22
  A 0.77 0.74 56.0 0 1 393.34 234.06
  L 380.88 246.58
  A 1.45 1.28 32.6 0 1 379.35 246.82
  L 369.22 242.43
  A 1.07 0.95 -46.0 0 0 368.32 242.50
  Q 360.59 246.91 351.81 249.30
  A 1.02 1.01 2.2 0 0 351.13 249.92
  L 346.98 260.52
  A 0.76 0.75 -79.1 0 1 346.28 261.00
  L 328.30 260.94
  A 0.75 0.73 78.6 0 1 327.62 260.47
  L 323.68 250.31
  A 1.80 1.74 87.0 0 0 322.51 249.22
  Q 313.63 246.67 306.15 242.34
  A 1.05 1.00 -41.3 0 0 305.23 242.30
  L 294.84 246.96
  A 0.85 0.83 55.4 0 1 293.91 246.78
  L 281.50 234.38
  A 1.52 1.43 -56.2 0 1 281.23 232.75
  L 285.58 222.72
  A 1.10 0.91 45.6 0 0 285.50 221.81
  Q 281.15 213.96 278.82 205.29
  A 0.99 0.98 3.2 0 0 278.22 204.63
  L 267.52 200.37
  A 0.73 0.72 -79.5 0 1 267.06 199.69
  L 267.05 181.81
  A 0.73 0.73 -10.5 0 1 267.52 181.13
  L 278.25 176.91
  A 1.06 1.04 -4.1 0 0 278.89 176.19
  Q 281.08 167.39 285.54 159.94
  A 1.65 1.62 -42.2 0 0 285.63 158.43
  L 281.11 148.50
  A 1.08 1.04 55.6 0 1 281.31 147.31
  L 293.62 135.01
  A 1.43 1.40 33.8 0 1 295.18 134.72
  L 305.28 139.06
  A 1.05 1.01 -47.2 0 0 306.19 139.01
  Q 314.03 134.75 322.58 132.20
  A 1.13 0.95 0.2 0 0 323.28 131.61
  L 327.49 121.03
  A 0.84 0.75 -77.9 0 1 328.21 120.50
  L 346.20 120.56
  A 0.75 0.72 -10.3 0 1 346.89 121.02
  L 350.94 131.31
  A 1.71 1.55 85.4 0 0 352.00 132.30
  Q 360.84 134.69 368.32 139.09
  A 1.37 1.25 -39.9 0 0 369.50 139.14
  L 380.09 134.56
  A 0.40 0.37 55.0 0 1 380.51 134.65
  Z
  M 370.42 190.76
  A 33.12 33.12 0.0 0 0 337.30 157.64
  A 33.12 33.12 0.0 0 0 304.18 190.76
  A 33.12 33.12 0.0 0 0 337.30 223.88
  A 33.12 33.12 0.0 0 0 370.42 190.76
  Z"
/>
<path fill="#436fe6" d="
  M 200.64 307.28
  L 196.67 317.58
  A 1.40 1.36 -78.8 0 1 195.38 318.47
  L 178.00 318.28
  A 0.78 0.77 79.6 0 1 177.30 317.79
  L 173.11 307.29
  A 1.08 0.97 84.7 0 0 172.45 306.68
  Q 163.74 304.29 155.93 299.75
  A 1.03 0.99 47.6 0 0 155.04 299.69
  L 144.35 304.27
  A 0.80 0.74 -32.8 0 1 143.51 304.12
  L 130.91 291.30
  A 0.77 0.75 -56.8 0 1 130.75 290.48
  C 132.37 286.54 136.35 280.46 134.44 277.49
  C 131.62 273.10 129.74 267.71 128.44 262.68
  A 1.07 0.91 -89.7 0 0 127.86 261.99
  L 117.50 258.00
  A 1.57 1.46 11.4 0 1 116.50 256.61
  L 116.50 239.70
  A 1.70 1.64 -10.9 0 1 117.59 238.15
  L 127.67 234.30
  A 1.48 1.39 87.7 0 0 128.53 233.31
  Q 130.79 224.45 135.19 217.19
  A 1.62 1.51 49.9 0 0 135.26 215.76
  L 130.69 205.47
  A 0.63 0.60 -35.1 0 1 130.82 204.80
  L 143.52 192.11
  A 0.87 0.87 -56.0 0 1 144.49 191.92
  L 154.89 196.54
  A 1.07 1.04 41.2 0 0 155.85 196.49
  Q 163.54 191.92 172.31 189.60
  A 1.01 0.98 2.6 0 0 173.00 188.99
  L 177.18 178.30
  A 0.88 0.87 -79.1 0 1 177.99 177.75
  L 195.80 177.75
  A 0.82 0.80 -10.5 0 1 196.56 178.26
  L 200.79 189.08
  A 1.01 0.98 85.7 0 0 201.48 189.69
  Q 210.33 191.79 217.75 196.40
  A 1.52 1.39 -39.4 0 0 219.09 196.47
  L 229.47 191.99
  A 0.78 0.73 55.0 0 1 230.29 192.16
  L 242.90 204.65
  A 0.74 0.72 34.8 0 1 243.06 205.46
  L 238.46 216.05
  A 1.00 0.96 -48.9 0 0 238.50 216.93
  Q 242.93 224.54 245.44 233.69
  A 1.00 0.97 3.3 0 0 246.05 234.35
  L 256.36 238.18
  A 1.33 1.28 11.2 0 1 257.21 239.40
  L 257.03 257.00
  A 0.79 0.77 79.9 0 1 256.55 257.71
  L 246.19 261.77
  A 1.29 1.14 -4.7 0 0 245.44 262.55
  Q 242.98 271.41 238.51 279.16
  A 1.06 1.05 -42.3 0 0 238.46 280.12
  L 243.02 290.36
  A 1.11 1.10 -34.7 0 1 242.79 291.59
  L 230.20 304.18
  A 0.64 0.61 -54.6 0 1 229.51 304.31
  L 219.04 299.65
  A 1.03 1.03 55.4 0 0 218.12 299.69
  Q 209.92 304.30 201.30 306.68
  A 0.99 0.98 -86.8 0 0 200.64 307.28
  Z
  M 220.01 248.07
  A 33.13 33.13 0.0 0 0 186.88 214.94
  A 33.13 33.13 0.0 0 0 153.75 248.07
  A 33.13 33.13 0.0 0 0 186.88 281.20
  A 33.13 33.13 0.0 0 0 220.01 248.07
  Z"
/>
<path fill="#FFFFFF" d="
  M 60.81 210.31
  C 72.39 201.93 84.90 207.88 89.34 220.34
  Q 93.13 230.96 93.09 242.25
  Q 93.01 264.06 93.00 285.86
  C 93.00 293.51 92.59 307.23 92.92 317.93
  A 1.26 1.23 -25.8 0 1 92.60 318.81
  C 79.44 333.47 88.25 348.36 99.56 359.94
  Q 105.28 365.79 121.19 380.81
  C 130.20 389.33 140.82 377.42 132.18 369.32
  C 123.21 360.92 111.38 351.38 104.81 341.69
  C 93.73 325.35 118.20 307.40 132.88 323.37
  C 146.96 338.69 162.79 351.69 178.40 365.35
  C 188.81 374.46 191.17 388.67 190.90 402.28
  C 190.64 415.29 190.75 428.31 190.75 441.36
  A 0.88 0.88 0.0 0 1 189.87 442.24
  L 120.32 442.69
  A 0.46 0.45 2.3 0 1 119.86 442.20
  Q 120.02 439.89 119.19 439.06
  Q 90.50 410.38 61.82 381.68
  Q 53.23 373.09 50.63 361.92
  Q 49.38 356.54 49.77 342.01
  Q 51.24 287.08 52.83 232.16
  C 53.13 221.58 52.76 216.14 60.81 210.31
  Z"
/>
<path fill="#FFFFFF" d="
  M 391.85 442.75
  C 368.42 442.62 345.21 442.63 321.94 442.07
  A 0.52 0.52 0.0 0 1 321.43 441.56
  Q 321.11 422.65 321.25 403.75
  C 321.35 390.50 321.99 377.83 330.55 368.22
  Q 331.78 366.84 342.14 357.96
  C 356.97 345.24 368.32 335.78 378.31 324.06
  C 393.47 306.28 419.39 326.16 406.39 342.65
  C 398.88 352.17 389.72 359.85 381.01 368.21
  Q 377.37 371.71 376.63 374.15
  C 374.47 381.29 383.70 387.21 389.94 381.44
  Q 406.04 366.55 411.06 361.56
  C 422.73 349.97 433.00 334.18 419.58 318.97
  A 2.50 2.49 -63.8 0 1 418.96 317.15
  C 419.46 309.55 419.00 300.11 419.00 294.72
  Q 418.99 268.11 418.88 241.50
  Q 418.83 228.97 423.56 218.06
  C 431.78 199.11 458.24 205.09 458.87 225.00
  Q 461.95 322.88 462.50 352.00
  Q 462.82 368.90 450.26 381.51
  Q 422.41 409.46 394.52 437.36
  C 392.51 439.37 392.05 439.40 392.35 442.20
  A 0.49 0.49 -3.0 0 1 391.85 442.75
  Z"
/>
<path fill="#FFFFFF" d="
  M 213.7601 485.9429
  A 9.11 9.11 0.0 0 1 204.7300 495.1321
  L 104.5338 496.0065
  A 9.11 9.11 0.0 0 1 95.3446 486.9763
  L 95.1799 468.0971
  A 9.11 9.11 0.0 0 1 104.2100 458.9079
  L 204.4062 458.0335
  A 9.11 9.11 0.0 0 1 213.5954 467.0637
  L 213.7601 485.9429
  Z
  M 199.32 476.67
  A 5.95 5.95 0.0 0 0 193.37 470.72
  A 5.95 5.95 0.0 0 0 187.42 476.67
  A 5.95 5.95 0.0 0 0 193.37 482.62
  A 5.95 5.95 0.0 0 0 199.32 476.67
  Z"
/>
<path fill="#FFFFFF" d="
  M 416.6551 487.0163
  A 9.08 9.08 0.0 0 1 407.4962 496.0168
  L 307.2400 495.1418
  A 9.08 9.08 0.0 0 1 298.2396 485.9829
  L 298.4049 467.0437
  A 9.08 9.08 0.0 0 1 307.5638 458.0432
  L 407.8200 458.9182
  A 9.08 9.08 0.0 0 1 416.8204 468.0771
  L 416.6551 487.0163
  Z
  M 324.59 476.67
  A 5.95 5.95 0.0 0 0 318.64 470.72
  A 5.95 5.95 0.0 0 0 312.69 476.67
  A 5.95 5.95 0.0 0 0 318.64 482.62
  A 5.95 5.95 0.0 0 0 324.59 476.67
  Z"
/>
</svg>
